<?xml version="1.0" encoding="UTF-8" standalone="no"?>
<svg width="180" height="40" viewBox="0 0 180 40" fill="none" xmlns="http://www.w3.org/2000/svg">
  <!-- Color Circles -->
  <circle cx="14" cy="20" r="12" fill="#FF5E5B"/>
  <circle cx="32" cy="20" r="12" fill="#FFB703"/>
  <circle cx="50" cy="20" r="12" fill="#8AC926"/>
  <circle cx="68" cy="20" r="12" fill="#1982C4"/>
  <circle cx="86" cy="20" r="12" fill="#6A4C93"/>
  
  <!-- Text -->
  <path d="M98 15.5C98 13.2909 99.7909 11.5 102 11.5H106C108.209 11.5 110 13.2909 110 15.5V15.5C110 17.7091 108.209 19.5 106 19.5H102V24.5C102 26.7091 100.209 28.5 98 28.5V28.5C95.7909 28.5 94 26.7091 94 24.5V19.5V15.5C94 13.2909 95.7909 11.5 98 11.5V15.5Z" fill="#333333"/>
  <path d="M116 15.5C116 13.2909 117.791 11.5 120 11.5V11.5C122.209 11.5 124 13.2909 124 15.5V24.5C124 26.7091 122.209 28.5 120 28.5V28.5C117.791 28.5 116 26.7091 116 24.5V15.5Z" fill="#333333"/>
  <path d="M130 15.5C130 13.2909 131.791 11.5 134 11.5V11.5C136.209 11.5 138 13.2909 138 15.5V24.5C138 26.7091 136.209 28.5 134 28.5V28.5C131.791 28.5 130 26.7091 130 24.5V15.5Z" fill="#333333"/>
  <path d="M144 15.5C144 13.2909 145.791 11.5 148 11.5V11.5C150.209 11.5 152 13.2909 152 15.5V24.5C152 26.7091 150.209 28.5 148 28.5V28.5C145.791 28.5 144 26.7091 144 24.5V15.5Z" fill="#333333"/>
  <path d="M158 15.5C158 13.2909 159.791 11.5 162 11.5H166C168.209 11.5 170 13.2909 170 15.5V15.5C170 17.7091 168.209 19.5 166 19.5H162V24.5C162 26.7091 160.209 28.5 158 28.5V28.5C155.791 28.5 154 26.7091 154 24.5V19.5V15.5C154 13.2909 155.791 11.5 158 11.5V15.5Z" fill="#333333"/>
  <path d="M174 20C174 15.0294 178.029 11 183 11V11" stroke="#333333" stroke-width="4" stroke-linecap="round"/>
  <path d="M174 20C174 24.9706 178.029 29 183 29V29" stroke="#333333" stroke-width="4" stroke-linecap="round"/>
</svg>